<?xml version="1.0" standalone="no"?>
<!DOCTYPE svg PUBLIC "-//W3C//DTD SVG 20010904//EN"
 "http://www.w3.org/TR/2001/REC-SVG-20010904/DTD/svg10.dtd">
<svg version="1.0" xmlns="http://www.w3.org/2000/svg"
 width="399.000000pt" height="399.000000pt" viewBox="0 0 399.000000 399.000000"
 preserveAspectRatio="xMidYMid meet">
<metadata>
Created by potrace 1.11, written by Peter Selinger 2001-2013
</metadata>
<g transform="translate(0.000000,399.000000) scale(0.100000,-0.100000)"
fill="#000000" stroke="none">
<path d="M507 2923 c-3 -5 -12 -30 -20 -58 -8 -27 -83 -250 -166 -495 -83
-244 -150 -449 -147 -455 4 -12 213 -84 314 -109 88 -22 172 -34 308 -46 66
-5 130 -12 144 -14 14 -3 44 -7 67 -10 168 -21 459 -124 672 -237 163 -87 238
-152 271 -235 l19 -49 1 563 c0 540 -1 564 -19 583 -11 12 -22 35 -25 53 -19
102 -207 219 -521 324 -117 39 -215 58 -405 77 -157 15 -280 42 -404 89 -74
28 -82 30 -89 19z"/>
<path d="M3375 2898 c-99 -37 -266 -75 -365 -83 -257 -21 -358 -45 -585 -137
-213 -87 -336 -175 -358 -255 -6 -24 -19 -53 -29 -63 -17 -18 -18 -56 -17
-597 0 -481 2 -571 13 -538 20 64 41 97 88 141 123 116 477 276 763 347 67 17
207 37 365 51 95 9 211 27 238 37 13 5 41 12 60 15 40 7 262 83 276 95 4 4
-20 88 -54 186 -89 258 -227 655 -259 748 -16 47 -33 81 -42 81 -8 1 -50 -12
-94 -28z"/>
<path d="M128 1802 c-20 -51 -46 -157 -40 -164 7 -6 64 -22 122 -33 14 -3 45
-9 70 -15 114 -23 235 -31 490 -29 151 1 284 -1 295 -4 11 -2 45 -8 75 -12 30
-4 84 -14 120 -22 36 -8 76 -17 90 -20 14 -3 30 -6 35 -7 6 -2 24 -6 40 -10
17 -4 41 -11 55 -16 14 -4 45 -14 70 -21 25 -7 51 -17 58 -22 7 -6 15 -7 19
-4 6 6 -112 64 -187 92 -228 84 -332 115 -440 129 -25 4 -56 9 -70 11 -14 3
-56 7 -95 10 -38 3 -86 7 -105 10 -19 3 -55 7 -80 10 -55 7 -100 15 -180 34
-57 13 -175 51 -263 84 l-68 26 -11 -27z"/>
<path d="M3840 1820 c-20 -11 -244 -86 -295 -99 -103 -26 -220 -43 -380 -56
-38 -3 -83 -7 -100 -10 -16 -3 -47 -7 -69 -10 -103 -14 -329 -83 -466 -142
-113 -49 -190 -88 -181 -91 7 -2 17 0 24 6 24 19 307 97 440 121 93 17 204 25
317 24 252 -4 386 -3 405 1 11 2 49 7 85 11 36 4 74 9 85 11 11 2 34 7 50 10
56 10 150 35 158 43 8 8 -35 167 -49 181 -5 5 -16 5 -24 0z"/>
<path d="M64 1478 c-14 -109 -12 -140 11 -145 11 -3 114 -6 230 -8 204 -4 266
1 432 34 165 33 505 36 646 7 12 -3 42 -7 67 -10 42 -5 62 -9 115 -20 74 -17
80 -13 15 9 -73 25 -240 72 -281 80 -11 2 -28 6 -37 9 -24 7 -114 21 -227 34
-33 4 -112 7 -175 6 -63 -1 -173 -3 -245 -4 -133 -2 -270 14 -440 51 -49 10
-92 19 -96 19 -4 0 -11 -28 -15 -62z"/>
<path d="M3860 1529 c-50 -13 -130 -29 -165 -34 -16 -2 -46 -6 -65 -9 -124
-19 -165 -20 -495 -13 -109 3 -262 -11 -360 -32 -27 -6 -60 -13 -72 -16 -44
-8 -219 -57 -278 -77 -75 -25 -97 -43 -30 -24 50 15 78 20 170 31 28 4 57 8
65 10 96 25 466 25 590 0 29 -6 96 -16 127 -20 25 -3 90 -14 138 -22 36 -6
342 -5 370 1 11 2 37 5 59 5 l38 1 -6 68 c-4 37 -8 76 -11 87 -2 11 -4 28 -4
38 -1 19 -16 20 -71 6z"/>
<path d="M905 1294 c-16 -2 -97 -15 -180 -29 -82 -13 -172 -27 -200 -30 -102
-13 -451 -4 -477 12 -5 2 -8 -4 -8 -14 -1 -10 -3 -57 -6 -104 l-6 -86 84 3
c77 3 130 7 235 20 88 11 210 40 348 84 125 39 304 76 413 85 111 10 312 12
395 5 138 -12 44 16 -123 36 -25 3 -58 7 -75 10 -42 7 -364 13 -400 8z"/>
<path d="M2817 1294 c-1 -1 -39 -5 -84 -8 -46 -4 -91 -9 -101 -11 -11 -2 -42
-6 -69 -10 -120 -15 -100 -22 62 -22 161 0 304 -7 370 -19 102 -18 194 -40
295 -71 63 -19 122 -37 130 -39 21 -5 103 -25 115 -28 6 -2 30 -6 55 -10 25
-4 54 -9 65 -11 45 -7 165 -17 238 -19 l78 -3 -5 76 c-2 42 -5 89 -5 104 -1
16 -5 26 -9 23 -11 -6 -197 -20 -277 -20 -67 0 -231 12 -285 20 -19 3 -62 10
-95 15 -146 25 -268 37 -368 36 -59 0 -108 -2 -110 -3z"/>
</g>
</svg>
